<svg viewBox="0 0 96 96" xmlns="http://www.w3.org/2000/svg" xmlns:xlink="http://www.w3.org/1999/xlink" id="Icons_ScientistFemale_M" overflow="hidden"><g id="Icons"><path d="M74.651 58.241C71.213 55.5166 67.3541 53.3705 63.226 51.887 65.0976 51.3859 66.8888 50.6219 68.546 49.618 69.0127 49.3227 69.1516 48.7049 68.8563 48.2382 68.8122 48.1686 68.7597 48.1047 68.7 48.048 68.669 48.019 65.58 45.048 65.346 41.809 65.4611 39.4707 65.7959 37.1485 66.346 34.873 67.1854 31.1595 67.703 27.3805 67.893 23.578 67.893 18.686 66.581 15.948 63.365 14.126 61.958 13.326 59.565 13.601 58.317 13.818 57.45 12.65 55.131 10.175 50.262 8.658 45.0177 7.21826 39.415 7.94233 34.709 10.668 30.382 13.468 28.617 17.825 28.617 25.724 28.617 29.607 28.842 33.013 29.039 36.017 29.3235 38.6442 29.366 41.292 29.166 43.927 28.8521 45.6549 28.0998 47.2733 26.981 48.627 26.6532 49.0715 26.7478 49.6975 27.1923 50.0253 27.2291 50.0525 27.2678 50.0771 27.308 50.099 28.9505 50.9516 30.6953 51.5904 32.5 52 29.5312 53.1381 26.6837 54.5702 24 56.275L24 58.713C27.0361 56.6093 30.3297 54.9041 33.8 53.639L31.64 63.293C31.519 63.8319 31.8578 64.3668 32.3967 64.4877 32.4684 64.5038 32.5416 64.5119 32.615 64.512L37.076 64.512 34.776 68.945C34.5394 69.4032 34.6902 69.9662 35.124 70.245L47.01 77.864 47.01 85.031C41.5076 85.0098 36.0127 84.6216 30.562 83.869 30.3231 84.5399 29.9509 85.1556 29.468 85.679 35.7138 86.5961 42.0203 87.0377 48.333 87 60.933 87 73.433 85.432 77.603 82.3L78 82 78 64.982C77.896 62.3602 76.6775 59.9076 74.651 58.241ZM56.451 63.972 59.083 69.055 49.859 74.967 57.459 52.211 60.177 53.5 62.192 62.512 57.336 62.512C56.7837 62.512 56.336 62.9596 56.3359 63.5119 56.3359 63.672 56.3743 63.8298 56.448 63.972ZM48.03 74.132 40.206 50.721C40.1782 50.6625 40.1447 50.6069 40.106 50.555 40.6829 49.8467 40.9985 48.9615 41 48.048L41 46.256C45.3781 48.5836 50.6262 48.5855 55.006 46.261L55.006 48.048C55.0071 48.963 55.3231 49.8496 55.901 50.559ZM48.009 46C40.8325 45.9923 35.0167 40.1765 35.009 33L35.009 28.965C39.3491 28.6043 43.6078 27.5783 47.636 25.923L48.665 25.409C51.4298 24.207 53.9721 22.5474 56.185 20.5 56.354 21.677 56.985 25.648 57.925 27.329 58.5933 28.5485 59.5689 29.572 60.755 30.298 60.843 30.357 60.929 30.415 61.01 30.471L61.01 33C61.0017 40.1767 55.1857 45.9923 48.009 46ZM63 30C63.0034 29.753 62.9142 29.5136 62.75 29.329 62.4845 29.0602 62.187 28.8251 61.864 28.629 60.9436 28.0777 60.1872 27.2906 59.673 26.349 58.9035 24.3739 58.3956 22.3068 58.162 20.2 58.0174 19.2451 57.1997 18.5373 56.234 18.531L56.219 18.531C55.7166 18.5266 55.2324 18.719 54.87 19.067 52.7609 20.9523 50.364 22.4884 47.77 23.617L46.778 24.117C42.7166 25.7993 38.3973 26.7744 34.007 27 33.4547 27 33.007 27.4477 33.007 28L33.007 28 33.007 33C33.0101 37.7104 35.2303 42.1446 39 44.969L39 48.048C38.999 48.8331 38.5364 49.5441 37.819 49.863 35.112 51.098 31.132 49.65 29.278 48.828 30.2524 47.452 30.8914 45.8671 31.144 44.2 31.3709 41.4308 31.3337 38.6462 31.033 35.884 30.833 32.91 30.615 29.54 30.615 25.722 30.615 18.597 32.115 14.722 35.747 12.373 39.9714 9.9361 44.9944 9.28806 49.699 10.573 55.221 12.293 56.957 15.367 56.971 15.391 57.1817 15.7885 57.6318 15.9964 58.071 15.899 59.371 15.605 61.56 15.399 62.371 15.862 64.54 17.09 65.885 18.808 65.885 23.568 65.6922 27.2436 65.187 30.8961 64.375 34.486 63.7753 36.9318 63.4305 39.4332 63.346 41.95 63.6859 44.396 64.7538 46.6831 66.411 48.514 64.583 49.458 60.782 51.069 58.144 49.835 57.4484 49.5092 57.0035 48.8111 57.002 48.043L57.002 44.977C60.7791 42.1536 63.0053 37.7157 63.01 33ZM36.974 69.056 39.606 63.972C39.8601 63.4816 39.6685 62.8781 39.1781 62.6241 39.0362 62.5506 38.8788 62.5121 38.719 62.512L33.861 62.512 35.871 53.53 38.649 52.374 46.2 74.967ZM76 80.977C71.835 83.646 60.543 85 49.01 85.037L49.01 77.885 60.928 70.247C61.3615 69.9679 61.5117 69.405 61.275 68.947L58.975 64.514 63.44 64.514C63.9923 64.5142 64.4401 64.0666 64.4403 63.5143 64.4403 63.4405 64.4322 63.367 64.416 63.295L62.26 53.655C66.2697 55.0713 70.0196 57.1364 73.36 59.768 74.9523 61.0505 75.9144 62.9572 76 65Z" fill="#FFFFFF"/><path d="M22 65.7 22 55.6C22.023 54.3769 22.6626 53.2483 23.7 52.6 24.2425 52.3533 24.4822 51.7136 24.2356 51.1711 24.2246 51.147 24.2127 51.1233 24.2 51.1 24.0404 50.737 23.6882 50.4965 23.292 50.48 23.2275 50.4804 23.1632 50.4871 23.1 50.5L11.7 50.5C11.0765 50.4617 10.5401 50.936 10.5018 51.5595 10.5009 51.573 10.5003 51.5865 10.5 51.6 10.4649 52.0531 10.7001 52.4842 11.1 52.7 12.1693 53.3172 12.8201 54.4655 12.8 55.7L12.8 65.8 6.3 80.6C5.52672 82.2705 6.25404 84.2515 7.92451 85.0248 7.98227 85.0515 8.0408 85.0766 8.1 85.1 8.53795 85.3047 9.01664 85.4072 9.5 85.4L25.5 85.4C27.3622 85.4155 28.8845 83.9185 28.9 82.0562 28.9002 82.0375 28.9002 82.0187 28.9 82 28.9072 81.5166 28.8047 81.0379 28.6 80.6ZM20.979 52.5C20.3506 53.4125 20.0097 54.4921 20 55.6L20 59 14.8 59 14.8 55.7C14.805 54.5557 14.4557 53.4378 13.8 52.5ZM25.5 83.4 9.5 83.4C9.329 83.4048 9.15884 83.3745 9 83.311L8.917 83.27 8.831 83.236C8.49309 83.1037 8.22589 82.8361 8.094 82.498 7.95651 82.1613 7.96411 81.7829 8.115 81.452L8.126 81.428 8.137 81.404 14.637 66.604 14.806 66.22 14.806 61 20 61 20 66.122 20.171 66.509 26.771 81.409 26.79 81.452 26.811 81.494C26.8747 81.6528 26.905 81.823 26.9 81.994 26.9206 82.7498 26.3247 83.3792 25.5689 83.3999 25.5459 83.4005 25.523 83.4005 25.5 83.4Z" fill="#FFFFFF"/><circle cx="18.604" cy="36.7" r="1.7" fill="#FFFFFF"/><path d="M19.8 41.9C19.8 42.8389 20.5611 43.6 21.5 43.6 22.4389 43.6 23.2 42.8389 23.2 41.9 23.2 40.9611 22.4389 40.2 21.5 40.2 20.5611 40.2 19.8 40.9611 19.8 41.9Z" fill="#FFFFFF"/><path d="M15.2 42.4C16.1389 42.4 16.9 41.6389 16.9 40.7 16.9 39.7611 16.1389 39 15.2 39 14.2611 39 13.5 39.7611 13.5 40.7 13.5 41.6389 14.2611 42.4 15.2 42.4Z" fill="#FFFFFF"/><path d="M14 47C14 48.2703 15.0297 49.3 16.3 49.3 17.5703 49.3 18.6 48.2703 18.6 47 18.6 45.7297 17.5703 44.7 16.3 44.7 15.0297 44.7 14 45.7297 14 47Z" fill="#FFFFFF"/></g></svg>